<?xml version="1.0" encoding="UTF-8" standalone="no"?>
<svg
   xmlns:dc="http://purl.org/dc/elements/1.1/"
   xmlns:cc="http://creativecommons.org/ns#"
   xmlns:rdf="http://www.w3.org/1999/02/22-rdf-syntax-ns#"
   xmlns:svg="http://www.w3.org/2000/svg"
   xmlns="http://www.w3.org/2000/svg"
   xmlns:sodipodi="http://sodipodi.sourceforge.net/DTD/sodipodi-0.dtd"
   xmlns:inkscape="http://www.inkscape.org/namespaces/inkscape"
   inkscape:export-ydpi="576"
   inkscape:export-xdpi="576"
   inkscape:export-filename="D:\project oktober adnan\Solid(export)\PNG\20 - Windy.png"
   sodipodi:docname="11 - Landslide.svg"
   inkscape:version="1.0 (4035a4fb49, 2020-05-01)"
   id="svg831"
   version="1.1"
   viewBox="0 0 22.577778 22.577778"
   height="64pt"
   width="64pt">
  <defs
     id="defs825">
    <pattern
       y="0"
       x="0"
       height="6"
       width="6"
       patternUnits="userSpaceOnUse"
       id="EMFhbasepattern" />
    <pattern
       y="0"
       x="0"
       height="6"
       width="6"
       patternUnits="userSpaceOnUse"
       id="EMFhbasepattern-9" />
    <pattern
       y="0"
       x="0"
       height="6"
       width="6"
       patternUnits="userSpaceOnUse"
       id="EMFhbasepattern-0" />
    <pattern
       y="0"
       x="0"
       height="6"
       width="6"
       patternUnits="userSpaceOnUse"
       id="EMFhbasepattern-7" />
    <pattern
       y="0"
       x="0"
       height="6"
       width="6"
       patternUnits="userSpaceOnUse"
       id="EMFhbasepattern-2" />
    <pattern
       y="0"
       x="0"
       height="6"
       width="6"
       patternUnits="userSpaceOnUse"
       id="EMFhbasepattern-98" />
    <pattern
       y="0"
       x="0"
       height="6"
       width="6"
       patternUnits="userSpaceOnUse"
       id="EMFhbasepattern-6" />
    <pattern
       y="0"
       x="0"
       height="6"
       width="6"
       patternUnits="userSpaceOnUse"
       id="EMFhbasepattern-01" />
    <pattern
       y="0"
       x="0"
       height="6"
       width="6"
       patternUnits="userSpaceOnUse"
       id="EMFhbasepattern-07" />
    <pattern
       y="0"
       x="0"
       height="6"
       width="6"
       patternUnits="userSpaceOnUse"
       id="EMFhbasepattern-8" />
    <pattern
       y="0"
       x="0"
       height="6"
       width="6"
       patternUnits="userSpaceOnUse"
       id="EMFhbasepattern-4" />
    <pattern
       y="0"
       x="0"
       height="6"
       width="6"
       patternUnits="userSpaceOnUse"
       id="EMFhbasepattern-40" />
    <pattern
       y="0"
       x="0"
       height="6"
       width="6"
       patternUnits="userSpaceOnUse"
       id="EMFhbasepattern-08" />
    <pattern
       y="0"
       x="0"
       height="6"
       width="6"
       patternUnits="userSpaceOnUse"
       id="EMFhbasepattern-04" />
    <pattern
       y="0"
       x="0"
       height="6"
       width="6"
       patternUnits="userSpaceOnUse"
       id="EMFhbasepattern-014" />
    <pattern
       y="0"
       x="0"
       height="6"
       width="6"
       patternUnits="userSpaceOnUse"
       id="EMFhbasepattern-27" />
    <pattern
       y="0"
       x="0"
       height="6"
       width="6"
       patternUnits="userSpaceOnUse"
       id="EMFhbasepattern-09" />
    <pattern
       y="0"
       x="0"
       height="6"
       width="6"
       patternUnits="userSpaceOnUse"
       id="EMFhbasepattern-5" />
    <pattern
       y="0"
       x="0"
       height="6"
       width="6"
       patternUnits="userSpaceOnUse"
       id="EMFhbasepattern-018" />
  </defs>
  <sodipodi:namedview
     inkscape:lockguides="true"
     inkscape:document-rotation="0"
     inkscape:snap-global="true"
     inkscape:snap-nodes="false"
     inkscape:bbox-nodes="true"
     inkscape:snap-bbox="true"
     showguides="true"
     inkscape:snap-midpoints="true"
     inkscape:snap-smooth-nodes="true"
     inkscape:snap-intersection-paths="true"
     inkscape:object-paths="true"
     inkscape:showpageshadow="false"
     inkscape:pagecheckerboard="true"
     inkscape:window-maximized="1"
     inkscape:window-y="-8"
     inkscape:window-x="-8"
     inkscape:window-height="706"
     inkscape:window-width="1366"
     units="pt"
     showgrid="false"
     inkscape:current-layer="layer1"
     inkscape:document-units="pt"
     inkscape:cy="42.778201"
     inkscape:cx="34.109987"
     inkscape:zoom="4.4415145"
     inkscape:pageshadow="2"
     inkscape:pageopacity="0.0"
     borderopacity="1.0"
     bordercolor="#666666"
     pagecolor="#ffffff"
     id="base">
    <inkscape:grid
       id="grid1378"
       type="xygrid" />
    <sodipodi:guide
       inkscape:locked="true"
       id="guide1380"
       orientation="78.000048,0"
       position="0.97013831,21.607643" />
    <sodipodi:guide
       inkscape:locked="true"
       id="guide1382"
       orientation="0,78.000005"
       position="0.97013831,0.97013129" />
    <sodipodi:guide
       inkscape:locked="true"
       id="guide1384"
       orientation="-78.000048,0"
       position="21.607639,0.97013129" />
    <sodipodi:guide
       inkscape:locked="true"
       id="guide1386"
       orientation="0,-78.000005"
       position="21.607639,21.607643" />
  </sodipodi:namedview>
  <metadata
     id="metadata828">
    <rdf:RDF>
      <cc:Work
         rdf:about="">
        <dc:format>image/svg+xml</dc:format>
        <dc:type
           rdf:resource="http://purl.org/dc/dcmitype/StillImage" />
        <dc:title></dc:title>
      </cc:Work>
    </rdf:RDF>
  </metadata>
  <g
     transform="translate(0,-274.42223)"
     id="layer1"
     inkscape:groupmode="layer"
     inkscape:label="Icon">
    <g
       style="stroke-width:0.794868"
       transform="matrix(1.2580711,0,0,1.2580711,77.385981,313.42659)"
       id="g437">
      <path
         id="path349"
         style="color:#000000;font-style:normal;font-variant:normal;font-weight:normal;font-stretch:normal;font-size:medium;line-height:normal;font-family:sans-serif;font-variant-ligatures:normal;font-variant-position:normal;font-variant-caps:normal;font-variant-numeric:normal;font-variant-alternates:normal;font-variant-east-asian:normal;font-feature-settings:normal;font-variation-settings:normal;text-indent:0;text-align:start;text-decoration:none;text-decoration-line:none;text-decoration-style:solid;text-decoration-color:#000000;letter-spacing:normal;word-spacing:normal;text-transform:none;writing-mode:lr-tb;direction:ltr;text-orientation:mixed;dominant-baseline:auto;baseline-shift:baseline;text-anchor:start;white-space:normal;shape-padding:0;shape-margin:0;inline-size:0;clip-rule:nonzero;display:inline;overflow:visible;visibility:visible;isolation:auto;mix-blend-mode:normal;color-interpolation:sRGB;color-interpolation-filters:linearRGB;solid-color:#000000;solid-opacity:1;vector-effect:none;fill:#66342d;fill-opacity:1;fill-rule:nonzero;stroke:none;stroke-width:1.58974;stroke-linecap:round;stroke-linejoin:round;stroke-miterlimit:4;stroke-dasharray:none;stroke-dashoffset:0;stroke-opacity:1;color-rendering:auto;image-rendering:auto;shape-rendering:auto;text-rendering:auto;enable-background:accumulate;stop-color:#000000"
         d="m -228.57227,-114.25781 a 1.0000006,1.0000006 0 0 0 -0.99804,0.99804 v 3.99805 a 1.0001006,1.0001006 0 0 0 0,0.002 v 56.000004 a 1.0001006,1.0001006 0 0 0 0.99804,0.996094 h 55.99805 4.00195 a 1.0000006,1.0000006 0 0 0 0.9961,-0.996094 1.0000006,1.0000006 0 0 0 -0.9961,-0.998046 h -3.28125 c -1.30734,-3.891694 -3.40079,-6.698441 -5.82031,-9.13086 -2.56693,-2.580627 -5.47808,-4.78278 -8.32812,-7.632812 -1.56753,-1.567537 -2.87008,-4.712391 -4.15625,-8.113282 -1.28618,-3.40089 -2.58986,-7.049501 -4.6211,-9.757812 -0.69474,-0.926325 -1.70927,-1.435232 -2.75976,-1.712891 -1.0505,-0.277644 -2.16753,-0.353449 -3.27735,-0.390625 -2.21964,-0.07438 -4.42682,-0.07767 -5.45507,-0.591797 -1.35325,-0.676622 -2.47379,-2.18547 -3.55079,-4.185547 -1.07699,-2.000076 -2.1066,-4.427562 -3.46289,-6.746092 -1.35629,-2.31853 -3.05836,-4.54921 -5.53711,-6.05274 -2.24887,-1.36408 -5.12097,-2.07293 -8.7539,-1.78515 v -2.90235 a 1.0000006,1.0000006 0 0 0 -0.9961,-0.99804 z"
         transform="scale(0.26458334)" />
      <path
         id="path319"
         d="m -57.996094,-29.804645 c -0.03169,0.141371 0.01557,0.232931 0.05664,0.308594 0.08213,0.151326 0.204263,0.278743 0.345703,0.417969 0.28288,0.278452 0.6452,0.567265 0.78125,0.681641 0.05452,0.04582 0.248886,0.305739 0.439453,0.542968 0.09528,0.118615 0.194819,0.235548 0.306641,0.333985 0.111822,0.09844 0.237547,0.193677 0.421875,0.205078 0.187862,0.01164 0.387553,-0.05456 0.490234,-0.203125 0.102681,-0.148565 0.09874,-0.300691 0.08398,-0.425781 -0.08951,-0.300918 -0.108559,-0.596106 -0.05664,-0.876953 0.03758,-0.153334 0.08913,-0.335312 0.03125,-0.546876 -0.07818,-0.285671 -0.300009,-0.434076 -0.507813,-0.566406 -0.228404,-0.147312 -0.439976,-0.233988 -0.699166,-0.2793 -0.320803,-0.0157 -0.622695,-0.03826 -0.846056,0.0093 -0.223361,0.04758 -0.372605,0.09788 -0.518419,0.125971 -0.145813,0.02809 -0.297237,0.131565 -0.328932,0.272935 z"
         style="color:#000000;font-style:normal;font-variant:normal;font-weight:normal;font-stretch:normal;font-size:medium;line-height:normal;font-family:sans-serif;font-variant-ligatures:normal;font-variant-position:normal;font-variant-caps:normal;font-variant-numeric:normal;font-variant-alternates:normal;font-variant-east-asian:normal;font-feature-settings:normal;font-variation-settings:normal;text-indent:0;text-align:start;text-decoration:none;text-decoration-line:none;text-decoration-style:solid;text-decoration-color:#000000;letter-spacing:normal;word-spacing:normal;text-transform:none;writing-mode:lr-tb;direction:ltr;text-orientation:mixed;dominant-baseline:auto;baseline-shift:baseline;text-anchor:start;white-space:normal;shape-padding:0;shape-margin:0;inline-size:0;clip-rule:nonzero;display:inline;overflow:visible;visibility:visible;isolation:auto;mix-blend-mode:normal;color-interpolation:sRGB;color-interpolation-filters:linearRGB;solid-color:#000000;solid-opacity:1;vector-effect:none;fill:#aabfd0;fill-opacity:1;fill-rule:nonzero;stroke:none;stroke-width:0.420618;stroke-linecap:round;stroke-linejoin:round;stroke-miterlimit:4;stroke-dasharray:none;stroke-dashoffset:0;stroke-opacity:1;color-rendering:auto;image-rendering:auto;shape-rendering:auto;text-rendering:auto;enable-background:accumulate;stop-color:#000000"
         sodipodi:nodetypes="sssssscscccccccs" />
      <path
         id="path377"
         style="color:#000000;font-style:normal;font-variant:normal;font-weight:normal;font-stretch:normal;font-size:medium;line-height:normal;font-family:sans-serif;font-variant-ligatures:normal;font-variant-position:normal;font-variant-caps:normal;font-variant-numeric:normal;font-variant-alternates:normal;font-variant-east-asian:normal;font-feature-settings:normal;font-variation-settings:normal;text-indent:0;text-align:start;text-decoration:none;text-decoration-line:none;text-decoration-style:solid;text-decoration-color:#000000;letter-spacing:normal;word-spacing:normal;text-transform:none;writing-mode:lr-tb;direction:ltr;text-orientation:mixed;dominant-baseline:auto;baseline-shift:baseline;text-anchor:start;white-space:normal;shape-padding:0;shape-margin:0;inline-size:0;clip-rule:nonzero;display:inline;overflow:visible;visibility:visible;opacity:1;isolation:auto;mix-blend-mode:normal;color-interpolation:sRGB;color-interpolation-filters:linearRGB;solid-color:#000000;solid-opacity:1;vector-effect:none;fill:#311a12;fill-opacity:1;fill-rule:nonzero;stroke:none;stroke-width:1.58974;stroke-linecap:round;stroke-linejoin:round;stroke-miterlimit:4;stroke-dasharray:none;stroke-dashoffset:0;stroke-opacity:1;color-rendering:auto;image-rendering:auto;shape-rendering:auto;text-rendering:auto;enable-background:accumulate;stop-color:#000000;stop-opacity:1"
         d="m -206.42188,-91.675781 -12.14843,0.01563 a 1.0000006,1.0000006 0 0 0 -1.00391,1.003906 1.0000006,1.0000006 0 0 0 1.00391,0.996094 l 22.96875,-0.02734 c -0.57971,-0.436222 -1.24597,-0.735188 -1.9375,-0.917969 -1.0505,-0.277644 -2.16753,-0.353449 -3.27735,-0.390625 -2.21964,-0.07438 -4.42682,-0.07767 -5.45507,-0.591797 -0.0511,-0.02554 -0.1,-0.06 -0.1504,-0.08789 z"
         transform="scale(0.26458334)" />
      <path
         id="path373"
         style="color:#000000;font-style:normal;font-variant:normal;font-weight:normal;font-stretch:normal;font-size:medium;line-height:normal;font-family:sans-serif;font-variant-ligatures:normal;font-variant-position:normal;font-variant-caps:normal;font-variant-numeric:normal;font-variant-alternates:normal;font-variant-east-asian:normal;font-feature-settings:normal;font-variation-settings:normal;text-indent:0;text-align:start;text-decoration:none;text-decoration-line:none;text-decoration-style:solid;text-decoration-color:#000000;letter-spacing:normal;word-spacing:normal;text-transform:none;writing-mode:lr-tb;direction:ltr;text-orientation:mixed;dominant-baseline:auto;baseline-shift:baseline;text-anchor:start;white-space:normal;shape-padding:0;shape-margin:0;inline-size:0;clip-rule:nonzero;display:inline;overflow:visible;visibility:visible;opacity:1;isolation:auto;mix-blend-mode:normal;color-interpolation:sRGB;color-interpolation-filters:linearRGB;solid-color:#000000;solid-opacity:1;vector-effect:none;fill:#311a12;fill-opacity:1;fill-rule:nonzero;stroke:none;stroke-width:1.58974;stroke-linecap:round;stroke-linejoin:round;stroke-miterlimit:4;stroke-dasharray:none;stroke-dashoffset:0;stroke-opacity:1;color-rendering:auto;image-rendering:auto;shape-rendering:auto;text-rendering:auto;enable-background:accumulate;stop-color:#000000;stop-opacity:1"
         d="m -186.25781,-71.314453 -16.31641,0.01367 a 1.0000006,1.0000006 0 0 0 -0.99609,1.003906 1.0000006,1.0000006 0 0 0 0.99609,0.996094 l 18.36914,-0.01563 c -0.59908,-0.55004 -1.19934,-1.107544 -1.79687,-1.705078 -0.0871,-0.08713 -0.17033,-0.196327 -0.25586,-0.292969 z"
         transform="scale(0.26458334)" />
      <path
         style="color:#000000;font-style:normal;font-variant:normal;font-weight:normal;font-stretch:normal;font-size:medium;line-height:normal;font-family:sans-serif;font-variant-ligatures:normal;font-variant-position:normal;font-variant-caps:normal;font-variant-numeric:normal;font-variant-alternates:normal;font-variant-east-asian:normal;font-feature-settings:normal;font-variation-settings:normal;text-indent:0;text-align:start;text-decoration:none;text-decoration-line:none;text-decoration-style:solid;text-decoration-color:#000000;letter-spacing:normal;word-spacing:normal;text-transform:none;writing-mode:lr-tb;direction:ltr;text-orientation:mixed;dominant-baseline:auto;baseline-shift:baseline;text-anchor:start;white-space:normal;shape-padding:0;shape-margin:0;inline-size:0;clip-rule:nonzero;display:inline;overflow:visible;visibility:visible;isolation:auto;mix-blend-mode:normal;color-interpolation:sRGB;color-interpolation-filters:linearRGB;solid-color:#000000;solid-opacity:1;vector-effect:none;fill:#aabfd0;fill-opacity:1;fill-rule:nonzero;stroke:none;stroke-width:0.420618;stroke-linecap:round;stroke-linejoin:round;stroke-miterlimit:4;stroke-dasharray:none;stroke-dashoffset:0;stroke-opacity:1;color-rendering:auto;image-rendering:auto;shape-rendering:auto;text-rendering:auto;enable-background:accumulate;stop-color:#000000"
         d="m -54.982422,-26.806641 c -0.215234,0 -0.394531,0.181258 -0.394531,0.396485 0,0.215233 0.179305,0.394531 0.394531,0.394531 0.215236,0 0.396484,-0.179305 0.396484,-0.394531 0,-0.215234 -0.181257,-0.396485 -0.396484,-0.396485 z"
         id="path293" />
      <path
         sodipodi:nodetypes="sssssscscccccccs"
         style="color:#000000;font-style:normal;font-variant:normal;font-weight:normal;font-stretch:normal;font-size:medium;line-height:normal;font-family:sans-serif;font-variant-ligatures:normal;font-variant-position:normal;font-variant-caps:normal;font-variant-numeric:normal;font-variant-alternates:normal;font-variant-east-asian:normal;font-feature-settings:normal;font-variation-settings:normal;text-indent:0;text-align:start;text-decoration:none;text-decoration-line:none;text-decoration-style:solid;text-decoration-color:#000000;letter-spacing:normal;word-spacing:normal;text-transform:none;writing-mode:lr-tb;direction:ltr;text-orientation:mixed;dominant-baseline:auto;baseline-shift:baseline;text-anchor:start;white-space:normal;shape-padding:0;shape-margin:0;inline-size:0;clip-rule:nonzero;display:inline;overflow:visible;visibility:visible;isolation:auto;mix-blend-mode:normal;color-interpolation:sRGB;color-interpolation-filters:linearRGB;solid-color:#000000;solid-opacity:1;vector-effect:none;fill:#aabfd0;fill-opacity:1;fill-rule:nonzero;stroke:none;stroke-width:0.420618;stroke-linecap:round;stroke-linejoin:round;stroke-miterlimit:4;stroke-dasharray:none;stroke-dashoffset:0;stroke-opacity:1;color-rendering:auto;image-rendering:auto;shape-rendering:auto;text-rendering:auto;enable-background:accumulate;stop-color:#000000"
         d="m -51.288588,-24.954392 c -0.07483,0.124061 -0.05899,0.225875 -0.044,0.31065 0.02999,0.169546 0.105486,0.32908 0.19556,0.505929 0.180149,0.353699 0.432369,0.742381 0.5252,0.893953 0.03721,0.06073 0.139265,0.368817 0.244904,0.654183 0.05282,0.142682 0.110206,0.285117 0.185103,0.413898 0.0749,0.128784 0.163993,0.258931 0.335226,0.328115 0.174508,0.07052 0.384886,0.07097 0.529326,-0.03743 0.144442,-0.108405 0.188876,-0.253952 0.214486,-0.377278 0.01042,-0.313777 0.08579,-0.599806 0.223968,-0.84976 0.0842,-0.133543 0.190723,-0.289833 0.202815,-0.508839 0.0163,-0.295726 -0.147118,-0.506738 -0.302325,-0.698061 -0.170002,-0.212057 -0.34324,-0.361269 -0.574744,-0.486323 -0.299323,-0.116477 -0.578535,-0.233473 -0.805463,-0.259089 -0.226933,-0.0256 -0.384425,-0.02514 -0.53163,-0.04467 -0.147205,-0.01953 -0.323603,0.03067 -0.398433,0.15473 z"
         id="path303" />
      <path
         sodipodi:nodetypes="sssssscscccccccs"
         style="color:#000000;font-style:normal;font-variant:normal;font-weight:normal;font-stretch:normal;font-size:medium;line-height:normal;font-family:sans-serif;font-variant-ligatures:normal;font-variant-position:normal;font-variant-caps:normal;font-variant-numeric:normal;font-variant-alternates:normal;font-variant-east-asian:normal;font-feature-settings:normal;font-variation-settings:normal;text-indent:0;text-align:start;text-decoration:none;text-decoration-line:none;text-decoration-style:solid;text-decoration-color:#000000;letter-spacing:normal;word-spacing:normal;text-transform:none;writing-mode:lr-tb;direction:ltr;text-orientation:mixed;dominant-baseline:auto;baseline-shift:baseline;text-anchor:start;white-space:normal;shape-padding:0;shape-margin:0;inline-size:0;clip-rule:nonzero;display:inline;overflow:visible;visibility:visible;isolation:auto;mix-blend-mode:normal;color-interpolation:sRGB;color-interpolation-filters:linearRGB;solid-color:#000000;solid-opacity:1;vector-effect:none;fill:#aabfd0;fill-opacity:1;fill-rule:nonzero;stroke:none;stroke-width:0.420618;stroke-linecap:round;stroke-linejoin:round;stroke-miterlimit:4;stroke-dasharray:none;stroke-dashoffset:0;stroke-opacity:1;color-rendering:auto;image-rendering:auto;shape-rendering:auto;text-rendering:auto;enable-background:accumulate;stop-color:#000000"
         d="m -49.000255,-19.750472 c -0.03169,0.141371 0.01557,0.232931 0.05664,0.308594 0.08213,0.151326 0.204263,0.278743 0.345703,0.417969 0.28288,0.278452 0.6452,0.567265 0.78125,0.681641 0.05452,0.04582 0.248886,0.305739 0.439453,0.542968 0.09528,0.118615 0.194819,0.235548 0.306641,0.333985 0.111822,0.09844 0.237547,0.193677 0.421875,0.205078 0.187862,0.01164 0.387553,-0.05456 0.490234,-0.203125 0.102681,-0.148565 0.09874,-0.300691 0.08398,-0.425781 -0.08951,-0.300918 -0.108559,-0.596106 -0.05664,-0.876953 0.03758,-0.153334 0.08913,-0.335312 0.03125,-0.546876 -0.07818,-0.285671 -0.300009,-0.434076 -0.507813,-0.566406 -0.228404,-0.147312 -0.439976,-0.233988 -0.699166,-0.2793 -0.320803,-0.0157 -0.622695,-0.03826 -0.846056,0.0093 -0.223361,0.04758 -0.372605,0.09788 -0.518419,0.125971 -0.145813,0.02809 -0.297237,0.131565 -0.328932,0.272935 z"
         id="path323" />
      <path
         id="path339"
         d="m -49.161585,-21.514971 c -0.215234,0 -0.394531,0.181258 -0.394531,0.396485 0,0.215233 0.179305,0.394531 0.394531,0.394531 0.215236,0 0.396484,-0.179305 0.396484,-0.394531 0,-0.215234 -0.181257,-0.396485 -0.396484,-0.396485 z"
         style="color:#000000;font-style:normal;font-variant:normal;font-weight:normal;font-stretch:normal;font-size:medium;line-height:normal;font-family:sans-serif;font-variant-ligatures:normal;font-variant-position:normal;font-variant-caps:normal;font-variant-numeric:normal;font-variant-alternates:normal;font-variant-east-asian:normal;font-feature-settings:normal;font-variation-settings:normal;text-indent:0;text-align:start;text-decoration:none;text-decoration-line:none;text-decoration-style:solid;text-decoration-color:#000000;letter-spacing:normal;word-spacing:normal;text-transform:none;writing-mode:lr-tb;direction:ltr;text-orientation:mixed;dominant-baseline:auto;baseline-shift:baseline;text-anchor:start;white-space:normal;shape-padding:0;shape-margin:0;inline-size:0;clip-rule:nonzero;display:inline;overflow:visible;visibility:visible;isolation:auto;mix-blend-mode:normal;color-interpolation:sRGB;color-interpolation-filters:linearRGB;solid-color:#000000;solid-opacity:1;vector-effect:none;fill:#aabfd0;fill-opacity:1;fill-rule:nonzero;stroke:none;stroke-width:0.420618;stroke-linecap:round;stroke-linejoin:round;stroke-miterlimit:4;stroke-dasharray:none;stroke-dashoffset:0;stroke-opacity:1;color-rendering:auto;image-rendering:auto;shape-rendering:auto;text-rendering:auto;enable-background:accumulate;stop-color:#000000" />
      <path
         style="color:#000000;font-style:normal;font-variant:normal;font-weight:normal;font-stretch:normal;font-size:medium;line-height:normal;font-family:sans-serif;font-variant-ligatures:normal;font-variant-position:normal;font-variant-caps:normal;font-variant-numeric:normal;font-variant-alternates:normal;font-variant-east-asian:normal;font-feature-settings:normal;font-variation-settings:normal;text-indent:0;text-align:start;text-decoration:none;text-decoration-line:none;text-decoration-style:solid;text-decoration-color:#000000;letter-spacing:normal;word-spacing:normal;text-transform:none;writing-mode:lr-tb;direction:ltr;text-orientation:mixed;dominant-baseline:auto;baseline-shift:baseline;text-anchor:start;white-space:normal;shape-padding:0;shape-margin:0;inline-size:0;clip-rule:nonzero;display:inline;overflow:visible;visibility:visible;isolation:auto;mix-blend-mode:normal;color-interpolation:sRGB;color-interpolation-filters:linearRGB;solid-color:#000000;solid-opacity:1;vector-effect:none;fill:#aabfd0;fill-opacity:1;fill-rule:nonzero;stroke:none;stroke-width:0.420618;stroke-linecap:round;stroke-linejoin:round;stroke-miterlimit:4;stroke-dasharray:none;stroke-dashoffset:0;stroke-opacity:1;color-rendering:auto;image-rendering:auto;shape-rendering:auto;text-rendering:auto;enable-background:accumulate;stop-color:#000000"
         d="m -48.103251,-21.514971 c -0.215234,0 -0.394531,0.181258 -0.394531,0.396485 0,0.215233 0.179305,0.394531 0.394531,0.394531 0.215236,0 0.396484,-0.179305 0.396484,-0.394531 0,-0.215234 -0.181257,-0.396485 -0.396484,-0.396485 z"
         id="path341" />
      <path
         id="path343"
         d="m -45.788149,-16.954272 c -0.215234,0 -0.394531,0.181258 -0.394531,0.396485 0,0.215233 0.179305,0.394531 0.394531,0.394531 0.215236,0 0.396484,-0.179305 0.396484,-0.394531 0,-0.215234 -0.181257,-0.396485 -0.396484,-0.396485 z"
         style="color:#000000;font-style:normal;font-variant:normal;font-weight:normal;font-stretch:normal;font-size:medium;line-height:normal;font-family:sans-serif;font-variant-ligatures:normal;font-variant-position:normal;font-variant-caps:normal;font-variant-numeric:normal;font-variant-alternates:normal;font-variant-east-asian:normal;font-feature-settings:normal;font-variation-settings:normal;text-indent:0;text-align:start;text-decoration:none;text-decoration-line:none;text-decoration-style:solid;text-decoration-color:#000000;letter-spacing:normal;word-spacing:normal;text-transform:none;writing-mode:lr-tb;direction:ltr;text-orientation:mixed;dominant-baseline:auto;baseline-shift:baseline;text-anchor:start;white-space:normal;shape-padding:0;shape-margin:0;inline-size:0;clip-rule:nonzero;display:inline;overflow:visible;visibility:visible;isolation:auto;mix-blend-mode:normal;color-interpolation:sRGB;color-interpolation-filters:linearRGB;solid-color:#000000;solid-opacity:1;vector-effect:none;fill:#aabfd0;fill-opacity:1;fill-rule:nonzero;stroke:none;stroke-width:0.420618;stroke-linecap:round;stroke-linejoin:round;stroke-miterlimit:4;stroke-dasharray:none;stroke-dashoffset:0;stroke-opacity:1;color-rendering:auto;image-rendering:auto;shape-rendering:auto;text-rendering:auto;enable-background:accumulate;stop-color:#000000" />
      <path
         id="path389"
         style="fill:#311a12;fill-opacity:1;stroke:none;stroke-width:1.58974;stroke-linecap:round;stroke-linejoin:round"
         d="m -228.57227,-114.25781 a 1.0000006,1.0000006 0 0 0 -0.99804,0.99804 v 3.99805 a 1.0001006,1.0001006 0 0 0 0,0.002 v 3.41211 c 11.9383,2.17957 11.17564,4.31418 16.51758,14.998051 2.59158,5.183168 12.60921,3.238053 14.40625,5.933593 3.37495,5.062451 5.34105,11.359858 8.30468,17.28711 1.77453,3.549037 5.89658,4.880948 8.30469,7.289062 3.19618,3.196176 3.09536,6.08692 4.95508,8.076172 h 4.50781 4.00195 a 1.0000006,1.0000006 0 0 0 0.9961,-0.996094 1.0000006,1.0000006 0 0 0 -0.9961,-0.998046 h -3.28125 c -1.30734,-3.891695 -3.40079,-6.698441 -5.82031,-9.13086 -2.56693,-2.580627 -5.47808,-4.78278 -8.32812,-7.632812 -1.56753,-1.567537 -2.87008,-4.712391 -4.15625,-8.113282 -1.28618,-3.40089 -2.58986,-7.049501 -4.6211,-9.757812 -0.69474,-0.926325 -1.70927,-1.435232 -2.75976,-1.712891 -1.0505,-0.277644 -2.16753,-0.353449 -3.27735,-0.390625 -2.21964,-0.07438 -4.42682,-0.07767 -5.45507,-0.591797 -1.35325,-0.676622 -2.47379,-2.185469 -3.55079,-4.185547 -1.07699,-2.000076 -2.1066,-4.427562 -3.46289,-6.746092 -1.35629,-2.31853 -3.05836,-4.54921 -5.53711,-6.05274 -2.24887,-1.36408 -5.12097,-2.07293 -8.7539,-1.78515 v -2.90235 a 1.0000006,1.0000006 0 0 0 -0.9961,-0.99804 z"
         transform="scale(0.26458334)" />
      <path
         id="path409"
         style="fill:#7d8e9e;fill-opacity:1;stroke:none;stroke-width:0.420618;stroke-linecap:round;stroke-linejoin:round"
         d="m -57.625426,-30.088087 c -0.01187,0.0025 -0.03007,0.0081 -0.04186,0.01034 -0.145812,0.02809 -0.296966,0.131482 -0.328663,0.272851 -0.03169,0.141373 0.01526,0.233363 0.05633,0.309026 0.08213,0.151326 0.204277,0.27832 0.345718,0.417547 0.282879,0.27845 0.645297,0.567751 0.781346,0.682127 0.05452,0.04582 0.248682,0.305375 0.439251,0.542603 0.09528,0.118615 0.195135,0.23591 0.306956,0.334346 0.111824,0.09844 0.237353,0.193238 0.42168,0.204639 0.187862,0.01164 0.387728,-0.05452 0.49041,-0.203089 0.10268,-0.148563 0.09848,-0.300723 0.08372,-0.425812 -0.03083,-0.103638 -0.04999,-0.206066 -0.06408,-0.307991 -0.550426,-0.407419 -2.055127,-1.130314 -2.490806,-1.836582 z" />
      <path
         d="m -48.629587,-20.033914 c -0.01187,0.0025 -0.03007,0.0081 -0.04186,0.01034 -0.145812,0.02809 -0.296966,0.131482 -0.328663,0.272851 -0.03169,0.141373 0.01526,0.233363 0.05633,0.309026 0.08213,0.151326 0.204277,0.27832 0.345718,0.417547 0.282879,0.27845 0.645297,0.567751 0.781346,0.682127 0.05452,0.04582 0.248682,0.305375 0.439251,0.542603 0.09528,0.118615 0.195135,0.23591 0.306956,0.334346 0.111824,0.09844 0.237353,0.193238 0.42168,0.204639 0.187862,0.01164 0.387728,-0.05452 0.49041,-0.203089 0.10268,-0.148563 0.09848,-0.300723 0.08372,-0.425812 -0.03083,-0.103638 -0.04999,-0.206066 -0.06408,-0.307991 -0.550426,-0.407419 -2.055127,-1.130314 -2.490806,-1.836582 z"
         style="fill:#7d8e9e;fill-opacity:1;stroke:none;stroke-width:0.420618;stroke-linecap:round;stroke-linejoin:round"
         id="path415" />
      <path
         id="path421"
         style="fill:#7d8e9e;fill-opacity:1;stroke:none;stroke-width:0.420618;stroke-linecap:round;stroke-linejoin:round"
         d="m -50.841345,-25.09995 c -0.01204,-0.0015 -0.03107,-0.0021 -0.04294,-0.0038 -0.147046,-0.02068 -0.323549,0.02813 -0.399351,0.15161 -0.0758,0.123473 -0.0612,0.225713 -0.04689,0.310599 0.02866,0.169775 0.103053,0.329501 0.191739,0.507053 0.17737,0.355098 0.42647,0.746239 0.518109,0.898533 0.03673,0.06102 0.136293,0.369487 0.239695,0.655672 0.05169,0.143092 0.108148,0.286418 0.182033,0.415781 0.07389,0.129367 0.161917,0.259731 0.3326,0.330254 0.17395,0.0719 0.384471,0.07407 0.52976,-0.0332 0.145285,-0.107269 0.190625,-0.252577 0.2172,-0.375698 0.0044,-0.108038 0.01948,-0.211146 0.0392,-0.312136 -0.388681,-0.563814 -1.577891,-1.735343 -1.761166,-2.544689 z" />
    </g>
  </g>
</svg>
