<?xml version="1.0" encoding="utf-8"?>
<!-- Generator: Adobe Illustrator 21.0.0, SVG Export Plug-In . SVG Version: 6.00 Build 0)  -->
<svg version="1.1" id="Layer_1" xmlns="http://www.w3.org/2000/svg" xmlns:xlink="http://www.w3.org/1999/xlink" x="0px" y="0px"
	 viewBox="0 0 2000 2000" style="enable-background:new 0 0 2000 2000;" xml:space="preserve">
<path d="M1708.2,477.6c-2.7-4.3-7.1-7-12.6-6.2c-0.7,0.1-1.4,0.2-2.1,0.4c-0.3,0.1-0.5,0.1-0.8,0.1c-156.8,60-313.6,120-470.4,179.9
	c-250.1,95.7-500.2,191.3-750.3,287c-57.6,22-115.3,44.1-172.9,66.1c-10.7,4.1-16.1,21.1-3.5,27.1c96.3,46.4,192.6,92.9,289,139.4
	c53.7,115.4,107.3,230.8,161,346.1c0.6,3.4,2.2,6,4.7,7.7c2.5,2.5,5.5,3.4,8.7,3.3c3.9,0.6,8-0.5,11.6-4.4
	c55.5-60.9,111-121.8,166.5-182.7c58.4,28.2,116.8,56.3,175.2,84.5c38.3,18.5,76.6,36.9,114.9,55.4c1.2,0.6,2.3,0.6,3.4,0.9
	c6.1,2.6,13.3,1.6,17-6.2c51.8-110.1,103.6-220.3,155.4-330.4c83.1-176.7,166.2-353.5,249.3-530.2c19.1-40.5,38.1-81.1,57.2-121.6
	C1713.1,488.6,1712,482.2,1708.2,477.6z M425.5,1062c-28.4-13.7-56.7-27.4-85.1-41c145.7-55.7,291.4-111.5,437-167.2
	c250.1-95.7,500.2-191.3,750.3-287c7.8-3,15.5-5.9,23.3-8.9c-77.7,47.5-155.4,94.9-233.1,142.3c-198.2,121-396.4,242-594.6,363.1
	c-43.4,26.5-86.8,53-130.2,79.5C537.2,1115.8,481.4,1088.9,425.5,1062z M973.8,945.1c188.5-115.1,377-230.2,565.5-345.3
	c-94.1,79.4-188.2,158.9-282.3,238.3c-102.1,86.2-204.2,172.4-306.3,258.5c-36.9,31.2-73.9,62.3-110.8,93.5c-19,16-40.7,31.1-58,49
	c-5.9,6-7.6,11.1-8.9,19.7c-4.1,26.9-6,54.4-8.9,81.4c-4.3,39.8-8.7,79.5-13.1,119.3c-45.7-98.2-91.4-196.5-137.1-294.7
	C734,1091.6,853.9,1018.3,973.8,945.1z M779.6,1470.2c3.7-33.8,7.4-67.6,11.1-101.4c3.3-30.1,6.6-60.1,9.9-90.2
	c0.1-0.8,0.3-1.7,0.4-2.6c36,17.4,72.1,34.8,108.1,52.2c-14.5,15.9-29,31.8-43.4,47.6C837,1407.2,808.3,1438.7,779.6,1470.2z
	 M928.5,1304.6c-37-17.8-74-35.7-111-53.5c11.7-10.4,25.2-24.5,28.5-27.4c33.6-28.4,67.2-56.8,100.8-85.1
	c200-168.9,400.1-337.7,600.1-506.6c35.8-30.2,71.6-60.4,107.4-90.7c-42,89.3-84,178.6-126,268c-83.1,176.7-166.2,353.5-249.3,530.2
	c-17.2,36.5-34.3,72.9-51.4,109.4C1128,1400.8,1028.3,1352.7,928.5,1304.6z"/>
</svg>
